<svg id="Layer_1" xmlns="http://www.w3.org/2000/svg" viewBox="0 0 32 32"><style>.st0{fill:#41449f}</style><path class="st0" d="M22.5 9.6c.9-.8 1.5-2 1.5-3.2 0-2.4-1.9-4.3-4.3-4.3-1.6 0-3 .8-3.7 2.2-.8-1.4-2.2-2.2-3.7-2.2C9.9 2.1 8 4 8 6.4c0 1.2.5 2.4 1.5 3.2H3.2v20.3h25.6V9.6h-6.3zm5.2 1.1v8.5H16.5v-8.5h.7l2.6 4.5.9-.5-2.3-4h9.3zM16 8.5l.6 1.1h-1.2l.6-1.1zm3.7-5.3c1.8 0 3.2 1.4 3.2 3.2s-1.4 3.2-3.2 3.2-3.2-1.4-3.2-3.2 1.5-3.2 3.2-3.2zM9.1 6.4c0-1.8 1.4-3.2 3.2-3.2s3.2 1.4 3.2 3.2c0 1.8-1.4 3.2-3.2 3.2S9.1 8.2 9.1 6.4zm4.5 4.3l-2.3 4 .9.5 2.6-4.5h.7v8.5H4.3v-8.5h9.3zm-9.3 9.6h11.2v8.5H4.3v-8.5zm12.2 8.5v-8.5h11.2v8.5H16.5z"/></svg>