<svg xmlns="http://www.w3.org/2000/svg" viewBox="0 0 210.3 23.3"><path d="M0 .5c4 0 8-.3 12 .1 3.9.4 5.9 3.8 4.7 7.4-.6 1.7-1.8 2.6-3.5 3.4.3.1.6.2.8.3 3.1 1 4.2 2.7 4.2 5.9 0 2.6-1.6 4.4-4.5 5.2-.7.2-1.5.4-2.3.4H-.1C0 15.5 0 8 0 .5zm1.2 11.3v10.3c3.5 0 6.8.1 10.2 0 1.1 0 2.3-.4 3.4-.9 1.4-.6 2.1-1.8 2.3-3.3.3-3.1-1-5.1-4.2-5.5-3.9-.5-7.8-.5-11.7-.6zm0-10.7V11h8.2c1 0 1.9-.1 2.9-.4 1.9-.5 3.3-1.6 3.5-3.7.4-2.8-1-5-4-5.3-3.5-.5-7.1-.4-10.6-.5zM163.5 23.3V.3c.3 0 .6-.1.8-.1 3.5.1 6.9-.1 10.4.3 5.8.6 9.7 5.2 9.8 11.1.1 5.8-3.7 10.6-9.5 11.3-3.8.4-7.6.3-11.5.4zm1.2-22.2v20.8c3.2 0 6.4.2 9.6 0 5.2-.5 8.7-4.4 9-9.7.3-5.2-2.9-9.6-8.1-10.5-3.4-.6-6.9-.4-10.5-.6zM120.2 15.1c1.9 2.7 3.8 5.3 5.7 8-.5 0-.9 0-1.3.1-1.9-2.6-3.7-5.2-5.5-7.7h-9.4v7.6c-.4 0-.7 0-1.1.1V.1c3.8.2 7.5.1 11.2.7 3.6.6 5.5 3.1 5.8 6.6.3 3.5-1.4 6.1-4.8 7.5-.1-.1-.3 0-.6.2zm-10.5-.8h8.1c.8 0 1.6-.2 2.4-.5 2.7-.8 4.2-2.9 4.3-5.7 0-3.2-1.3-5.4-4.2-6.3-3.4-1.1-7-.4-10.5-.6-.1 4.5-.1 8.8-.1 13.1zM195 .2h14.9v1.1h-13.8v9.6h12.3V12h-12.3v10.1h14.2v1.1h-15.4c.1-7.7.1-15.3.1-23zM30.2 12v10.1h14.2v1H29V.3h15v1H30.2v9.6h12.3V12H30.2zM154.7 23.1h-1.3c-1-2.2-2-4.4-3.1-6.6h-13.6c-1 2.2-2 4.3-3.1 6.6h-1.3c3.6-7.7 7.1-15.3 10.6-22.9h1.2c3.5 7.6 7 15.2 10.6 22.9zM143.6 1.6c-2.2 4.7-4.2 9.2-6.3 13.7H150c-2.2-4.6-4.3-9-6.4-13.7zM95.3 19.7V12c.3 0 .6-.1 1-.1v8.5c-4 4.1-12.1 3.9-16.5-.3-4.5-4.3-4.6-12-.3-16.4 4.4-4.5 12.3-4.8 16.8-.5-.2.2-.3.5-.6.8-3.3-2.8-7.1-3.4-11.1-2.1-4.1 1.4-6.4 4.4-7.1 8.6-.6 4.2 1.7 8.5 5.4 10.5 4.2 2 9.4 1.5 12.4-1.3zM55.4.3h1.1v21.8h13.4v1H55.4V.3z"/></svg>