<svg id="Layer_1" xmlns="http://www.w3.org/2000/svg" viewBox="0 0 25 32"><style>.st0{fill:#41449f}</style><path class="st0" d="M6.3 14.2h12.6v1H6.3v-1zm0 4.2h12.6v1H6.3v-1zm0 4.2h8.4v1H6.3v-1z"/><path class="st0" d="M15.7 3.7c-.2-1.5-1.5-2.6-3.1-2.6S9.7 2.2 9.5 3.7H0V31h25.2V3.7h-9.5zm-5.2 2.4V4.2c0-1.2.9-2.1 2.1-2.1s2.1.9 2.1 2.1v1.9l.5.3c1 .6 1.8 1.5 2.3 2.5H7.7C8.1 7.8 8.9 7 10 6.4l.5-.3zm13.6 23.8H1V4.7h8.4v.7c-1.6 1-2.8 2.7-3.1 4.6h12.6c-.3-1.9-1.5-3.5-3.1-4.5v-.8h8.4c-.1 0-.1 25.2-.1 25.2z"/></svg>