<svg xmlns="http://www.w3.org/2000/svg" width="270" height="39" viewBox="0 0 270 39"><path d="M40.8 13.7c-.5 3.2.7 6.5-1.1 9.7.6 2.4 1.2 4.9 1.8 7.7 1.3.4 2.7.9 4.2 1.4v1.7c-2.1.3-3.9-.6-5.6-1.6-1.7-.9-3.4-1.2-5.2-.8-.8.2-1.6.5-2.3.9-3.5 2-6.9 2-10.4 0-2.7-1.5-5.3-1.5-8 0-3.4 1.9-6.8 1.9-10.2.1-1.2-.6-2.6-1-4.1-1.5v-1.8c1.5.3 2.8.6 4.3.9.5-2.3 1.1-4.7 1.7-7.2h-.4c-.2-1.2-.6-2.4-.6-3.6-.1-2 0-4.1 0-6.2C5.9 12.2 7 11 8 9.7c2.1 2 3.9 4.1 3.1 7.4h3.6V11c-1-.9-2.1-1.8-3.2-2.6V.1h5.9v2.8h2.2V.1h6.2v2.8H28V.1h5.9v8.4c-1 .8-2.2 1.8-3.3 2.7v6.1h3.6v-3.6c1.1-1.3 2.1-2.5 3.3-3.9 1.2 1.2 2.2 2.5 3.3 3.9zM19.2 29.6v-1.4-2.8c0-2.1 1.6-3.7 3.7-3.7s3.6 1.6 3.7 3.8v6.6c1.8.3 3.3 0 4.8-.9 1.9-1.1 4-1.7 6.2-1.5.6 0 1.1.1 1.8.2-.5-2-.9-4-1.4-5.9-3.1-.2-3.6-2.3-3.5-4.7H11.6c-.4 3.7-.5 3.9-3.6 4.9-.6 2.4-1.2 4.9-1.8 7.5 2 .8 4 .9 5.9 0 2.2-1.2 4.4-2.3 7.1-2.1zm2.7-27.5v2.8h-6.1c0-.9-.1-1.8-.1-2.8h-2v5.4c.7.6 1.4 1.1 2.1 1.6h14.3c.7-.6 1.4-1.1 2.1-1.6V2.1h-1.9c0 1-.1 1.9-.1 2.8H24V2.1h-2.1zm6.8 15.1v-6H17.1v6h11.6zm-4.1 14.4v-6.3c0-1-.9-1.7-1.8-1.6-1 .1-1.6.7-1.6 1.7v4.5c1.1.5 2.1 1.1 3.4 1.7zM8.5 22.1c.2-.4.8-.8.8-1.2.1-2.2 0-4.5 0-6.6-.4-.5-.8-.8-1.4-1.6-.3 1.2-.7 2.1-.8 3-.1 1.6 0 3.2-.1 4.8-.1.7.2 1.3 1.5 1.6zm28-7.8v6.3c0 .8.4 1.4 1.2 1.3.8 0 1.2-.6 1.1-1.4v-6.2c-.4-.5-.7-.9-1.2-1.4-.3.5-.7.9-1.1 1.4z"/><path d="M0 35.8v-1.5c1.7-.2 3.3.4 4.7 1.2 1.4.8 2.9 1.5 4.6 1.2 1.2-.2 2.5-.4 3.6-1 3.6-1.9 7-2.1 10.5 0 2.7 1.5 5.4 1.5 8 0 3.5-1.9 6.9-1.9 10.4 0 1.1.6 2.4.9 3.8 1.4v1.8c-1.9.1-3.6-.6-5.2-1.5s-3.4-1.2-5.2-.9c-.9.2-1.8.4-2.5.9-3.7 2.1-7.2 2-10.9 0-2.4-1.3-4.8-1.4-7.2-.1S9.7 39.4 7 38.7c-.9-.2-1.8-.7-2.7-1.1-1.2-.6-2.6-1.1-4.3-1.8zM59.7 8.2c4 0 8-.3 12 .1 3.9.4 5.9 3.8 4.7 7.4-.6 1.7-1.8 2.6-3.5 3.4.3.1.6.2.8.3 3.1 1 4.2 2.7 4.2 5.9 0 2.6-1.6 4.4-4.5 5.2-.7.2-1.5.4-2.3.4H59.6c.1-7.7.1-15.2.1-22.7zm1.1 11.3v10.3c3.5 0 6.8.1 10.2 0 1.1 0 2.3-.4 3.4-.9 1.4-.6 2.1-1.8 2.3-3.3.3-3.1-1-5.1-4.2-5.5-3.8-.5-7.7-.5-11.7-.6zm0-10.7v9.9H69c1 0 1.9-.1 2.9-.4 1.9-.5 3.3-1.6 3.5-3.7.4-2.8-1-5-4-5.3-3.5-.5-7-.4-10.6-.5zM223.2 31V8c.3 0 .6-.1.8-.1 3.5.1 6.9-.1 10.4.3 5.8.6 9.7 5.2 9.8 11.1.1 5.8-3.7 10.6-9.5 11.3-3.8.4-7.6.3-11.5.4zm1.1-22.2v20.8c3.2 0 6.4.2 9.6 0 5.2-.5 8.7-4.4 9-9.7.3-5.2-2.9-9.6-8.1-10.5-3.3-.6-6.9-.4-10.5-.6zM179.8 22.8c1.9 2.7 3.8 5.3 5.7 8-.5 0-.9 0-1.3.1-1.9-2.6-3.7-5.2-5.5-7.7h-9.4v7.6c-.4 0-.7 0-1.1.1V7.8c3.8.2 7.5.1 11.2.7 3.6.6 5.5 3.1 5.8 6.6.3 3.5-1.4 6.1-4.8 7.5-.1-.1-.2 0-.6.2zm-10.4-.8h8.1c.8 0 1.6-.2 2.4-.5 2.7-.8 4.2-2.9 4.3-5.7 0-3.2-1.3-5.4-4.2-6.3-3.4-1.1-7-.4-10.5-.6-.1 4.5-.1 8.8-.1 13.1zM254.6 7.9h14.9V9h-13.8v9.6H268v1.1h-12.3v10.1h14.2v1.1h-15.4c.1-7.7.1-15.3.1-23zM89.8 19.7v10.1H104v1H88.6V8h15v1H89.8v9.6h12.3v1.1H89.8zM214.4 30.8h-1.3c-1-2.2-2-4.4-3.1-6.6h-13.6c-1 2.2-2 4.3-3.1 6.6H192c3.6-7.7 7.1-15.3 10.6-22.9h1.2c3.5 7.6 7 15.2 10.6 22.9zM203.2 9.3C201 14 199 18.5 196.9 23h12.7c-2.2-4.6-4.3-9-6.4-13.7zM155 27.4v-7.7c.3 0 .6-.1 1-.1v8.5c-4 4.1-12.1 3.9-16.5-.3-4.5-4.3-4.6-12-.3-16.4 4.4-4.5 12.3-4.8 16.8-.5-.2.2-.3.5-.6.8-3.3-2.8-7.1-3.4-11.1-2.1-4.1 1.4-6.4 4.4-7.1 8.6-.6 4.2 1.7 8.5 5.4 10.5 4.1 2 9.4 1.5 12.4-1.3zM115 8h1.1v21.8h13.4v1H115V8z"/></svg>
